<?xml version="1.0" encoding="utf-8"?>
<!-- Generator: Adobe Illustrator 16.0.0, SVG Export Plug-In . SVG Version: 6.00 Build 0)  -->
<!DOCTYPE svg PUBLIC "-//W3C//DTD SVG 1.1//EN" "http://www.w3.org/Graphics/SVG/1.1/DTD/svg11.dtd">
<svg version="1.1" id="Layer_1_copy" xmlns="http://www.w3.org/2000/svg" xmlns:xlink="http://www.w3.org/1999/xlink" x="0px"
	 y="0px" width="364.289px" height="34.642px" viewBox="0 0 364.289 34.642" enable-background="new 0 0 364.289 34.642"
	 xml:space="preserve">
<g>
	<g>
		<path fill="#FFFFFF" d="M21.071,34.206L10.928,18.811l-3.811,3.759v11.637H0.064V0.017h7.054v13.902L20.196,0.017h9.268
			l-13.489,13.49l13.799,20.699H21.071z"/>
		<path fill="#FFFFFF" d="M68.028,34.206l-2.162-7.055H53.251l-2.42,7.055h-7.569L55.465,0.017h8.289l12.049,34.189H68.028z
			 M59.533,7.688h-0.051l-4.377,13.594h8.701L59.533,7.688z"/>
		<path fill="#FFFFFF" d="M90.477,34.206V0.017h7.157v27.959h16.939v6.23H90.477z"/>
		<path fill="#FFFFFF" d="M153.087,34.206l-2.163-7.055H138.31l-2.42,7.055h-7.568l12.203-34.189h8.289l12.048,34.189H153.087z
			 M144.592,7.688h-0.052l-4.376,13.594h8.7L144.592,7.688z"/>
		<path fill="#FFFFFF" d="M196.543,34.206l-10.143-15.396l-3.811,3.759v11.637h-7.055V0.017h7.055v13.902l13.077-13.902h9.269
			l-13.489,13.49l13.798,20.699H196.543z"/>
		<path fill="#FFFFFF" d="M243.5,34.206l-2.163-7.055h-12.615l-2.42,7.055h-7.569l12.204-34.189h8.289l12.049,34.189H243.5z
			 M235.004,7.688h-0.052l-4.377,13.594h8.702L235.004,7.688z"/>
		<path fill="#FFFFFF" d="M285.873,34.206v-8.805c0-1.648-0.376-2.824-1.133-3.527c-0.752-0.703-2.158-1.056-4.218-1.056h-7.621
			v13.388h-6.951V0.017h17.353c1.576,0,3.01,0.249,4.298,0.746c1.287,0.499,2.392,1.185,3.318,2.06
			c0.927,0.876,1.64,1.923,2.139,3.142c0.495,1.22,0.745,2.532,0.745,3.938c0,1.854-0.436,3.493-1.312,4.917
			c-0.875,1.425-2.139,2.429-3.786,3.013c1.513,0.481,2.583,1.218,3.22,2.214c0.634,0.996,0.951,2.489,0.951,4.479v9.681H285.873z
			 M272.901,5.938v9.114h8.96c1.921,0,3.275-0.43,4.063-1.287c0.792-0.857,1.185-1.939,1.185-3.244c0-1.339-0.385-2.436-1.157-3.296
			c-0.772-0.857-2.052-1.287-3.834-1.287H272.901z"/>
	</g>
	<g>
		<path fill="#FFFFFF" d="M302.437,34.099v-3.101h3.192v3.101H302.437z"/>
		<path fill="#FFFFFF" d="M312.608,34.099V18.854h6.729c0.749,0,1.426,0.127,2.021,0.379c0.598,0.253,1.108,0.605,1.54,1.058
			c0.428,0.451,0.753,0.976,0.986,1.572c0.229,0.594,0.345,1.237,0.345,1.929c0,0.688-0.115,1.329-0.345,1.917
			c-0.233,0.588-0.559,1.095-0.986,1.513c-0.432,0.424-0.942,0.751-1.54,0.988c-0.595,0.24-1.271,0.356-2.021,0.356H315.8v5.533
			H312.608z M318.831,25.972c0.919,0,1.58-0.21,1.984-0.632c0.408-0.42,0.613-0.969,0.613-1.642c0-0.642-0.205-1.171-0.613-1.585
			c-0.404-0.414-1.065-0.619-1.984-0.619h-3.03v4.478H318.831z"/>
		<path fill="#FFFFFF" d="M339.589,34.099v-3.925c0-0.734-0.171-1.258-0.507-1.574c-0.337-0.313-0.963-0.47-1.882-0.47h-3.398v5.969
			h-3.102V18.854h7.739c0.705,0,1.343,0.109,1.917,0.333c0.575,0.222,1.069,0.526,1.481,0.919c0.412,0.391,0.729,0.857,0.951,1.4
			c0.222,0.544,0.332,1.129,0.332,1.757c0,0.825-0.189,1.556-0.582,2.191c-0.392,0.636-0.954,1.082-1.691,1.343
			c0.678,0.216,1.153,0.545,1.438,0.988c0.281,0.446,0.424,1.111,0.424,1.996v4.317H339.589z M333.802,21.494v4.063h3.992
			c0.859,0,1.462-0.19,1.814-0.572c0.353-0.383,0.53-0.867,0.53-1.448c0-0.596-0.174-1.087-0.515-1.469
			c-0.349-0.383-0.919-0.574-1.711-0.574H333.802z"/>
		<path fill="#FFFFFF" d="M356.945,34.626c-2.356,0-4.166-0.688-5.43-2.065c-1.264-1.379-1.897-3.359-1.897-5.947
			c0-1.285,0.166-2.44,0.487-3.466c0.32-1.026,0.796-1.896,1.422-2.606s1.395-1.256,2.297-1.63c0.899-0.374,1.945-0.564,3.121-0.564
			c1.165,0,2.198,0.19,3.113,0.564c0.907,0.374,1.672,0.921,2.286,1.642c0.609,0.719,1.077,1.597,1.397,2.63
			c0.321,1.032,0.483,2.198,0.483,3.5c0,2.632-0.626,4.616-1.873,5.947C361.104,33.96,359.302,34.626,356.945,34.626z
			 M356.945,31.895c0.566,0,1.102-0.104,1.608-0.311s0.942-0.519,1.319-0.94c0.372-0.42,0.669-0.961,0.887-1.618
			c0.214-0.66,0.317-1.438,0.317-2.343c0-1.805-0.353-3.175-1.054-4.109c-0.705-0.933-1.731-1.4-3.078-1.4s-2.38,0.468-3.101,1.4
			c-0.717,0.935-1.078,2.305-1.078,4.109c0,1.806,0.365,3.127,1.09,3.961C354.584,31.477,355.615,31.895,356.945,31.895z"/>
	</g>
</g>
</svg>
